<?xml version="1.0" standalone="no"?><!DOCTYPE svg PUBLIC "-//W3C//DTD SVG 1.1//EN" "http://www.w3.org/Graphics/SVG/1.1/DTD/svg11.dtd"><svg t="1761138101797" class="icon" viewBox="0 0 3771 1024" version="1.1" xmlns="http://www.w3.org/2000/svg" p-id="14114" xmlns:xlink="http://www.w3.org/1999/xlink" width="736.5234375" height="200"><path d="M1997.508698 255.029837c115.358048 0 228.609167 91.238868 228.609167 255.874007v2.099563c0 163.589043-112.205022 255.866641-228.609167 255.866641-81.794521 0-133.178542-40.893577-167.7808-87.032377v174.079487a56.378769 56.378769 0 0 1-54.824356 56.592408l-1.804887 0.029468c-30.4105 0-55.575779-25.165278-55.575779-55.575779V313.758642c-1.053465-30.4105 24.119181-55.583145 54.529681-56.629243h1.046098a56.378769 56.378769 0 0 1 56.599775 54.816989l0.029468 1.812254v33.55616c36.70182-51.384021 88.085841-92.284965 167.7808-92.284965z m1493.289638-1.046098c78.427855 0 129.436165 39.611739 166.027482 89.846526l1.753319 2.431072v-33.55616l0.029467-1.804887a56.371402 56.371402 0 0 1 54.758054-54.787521l1.841722-0.029468h1.046097c30.85988 1.031364 55.656814 25.253681 55.61998 55.863087l-0.036834 1.812254v343.959848c0 82.840619-22.026985 144.715084-62.920563 185.608662-44.046604 45.092702-113.258486 66.066222-202.390425 66.066222-66.066222 0-131.07898-14.682201-190.853883-44.046604-18.873959-6.29132-31.456598-25.165278-31.456598-45.085335 1.046098-26.22611 22.019619-46.146166 48.230995-46.146166 7.344784 0 13.628737 1.053465 19.927423 4.199125 46.138799 26.211376 98.568918 38.794015 151.006404 38.794015 95.430625 0 149.960306-46.138799 155.198161-135.270738-34.602258 45.085335-85.986279 85.986279-167.780801 85.986279-115.240178 0-226.362268-90.443244-228.572332-250.989763l-0.036835-4.884245v-2.092195c0-164.642507 113.258486-255.874008 228.609167-255.874008z m-447.781355 3.14566c111.166291 0 175.125584 74.457104 175.125584 188.761688v265.30362c1.053465 30.4105-23.065716 54.529681-53.483583 55.583145h-2.092195c-30.4105 1.046098-55.575779-24.119181-56.629243-54.529681V480.493344c0-76.549299-37.747917-120.595903-105.913702-120.595903-65.012758 0-111.158924 46.138799-111.158924 122.695465v229.655265a56.393503 56.393503 0 0 1-56.621876 56.621877 56.393503 56.393503 0 0 1-56.629243-56.621877l1.046097-397.443432c-1.046098-30.4105 24.119181-55.575779 54.529681-56.629243h1.053465a56.378769 56.378769 0 0 1 56.599775 54.824357l0.022101 1.804886v23.073083c33.563527-52.437486 92.284965-82.847986 154.152063-80.748423z m-1560.394592-1.046098c54.529681 1.046098 106.967166 14.682201 155.198161 39.84748 16.781763 8.390882 27.26484 24.119181 27.264841 42.993139 0 25.165278-20.973521 46.138799-46.138799 46.138799h-1.046098c-7.344784 0-14.682201-2.092195-22.026985-5.237855-35.655722-19.927423-74.449737-31.456598-115.350682-33.55616-44.039237 0-69.211882 20.966154-69.211882 48.238361v2.092196c0 36.70182 53.483583 51.384021 111.158924 70.257979l4.72954 1.458644 4.751641 1.48811c5.547264 1.753319 11.123996 3.59504 16.678627 5.525164l4.766374 1.67965c62.640621 22.446898 122.179783 57.874247 122.179784 133.517419v2.099562c0 103.81414-80.748424 155.198161-182.470369 155.198161-67.11232-1.046098-133.178542-20.973521-188.754321-58.721438-13.628737-8.398249-22.026985-23.073083-20.97352-38.801382 0-25.165278 19.920056-46.138799 45.085334-46.1388h1.053465c8.390882 0 16.781763 2.092195 24.11918 6.29132 41.947042 29.357036 91.231501 45.085335 141.569425 47.184897 48.238361 0 76.549299-20.973521 76.549299-53.483583v-2.092196c0-38.801382-52.430119-51.384021-110.105459-69.211882-6.033479-1.745952-12.125892-3.550838-18.23304-5.451495l-4.582203-1.436542c-65.697878-20.907219-131.336821-53.27731-131.336821-137.827047v-2.099562c0-93.331063 77.602764-149.952939 175.125584-149.952939z m1179.732923 2.092195a56.378769 56.378769 0 0 1 56.599776 54.824357l0.029468 1.804886v397.443432c0 31.456598-25.165278 55.575779-56.629244 55.575779-31.456598 0-55.575779-25.165278-55.575778-55.575779v-397.443432c-1.046098-30.4105 24.119181-55.575779 54.529681-56.629243h1.046097zM2561.686832 304.329029v8.383515c0 27.26484-18.873959 50.337923-45.085334 54.529681-80.755791 13.636104-135.285471 83.894083-135.285472 181.424271v162.535578c0 31.456598-25.165278 55.583145-56.621876 55.583145-29.813783 0-54.588616-23.183586-55.546311-52.746895l-0.036834-1.790153v-1.046097l1.053464-397.443432c-1.053465-30.403133 24.119181-55.575779 54.529681-56.621876h1.046098a56.378769 56.378769 0 0 1 56.599775 54.816989l0.029468 1.812254v27.257473c5.237855-41.939675 74.449737-83.886717 123.741563-83.886716 28.310938-2.099562 53.483583 18.873959 55.575778 47.192263z m-589.343412 49.284459c-76.549299 0-143.668986 63.96666-143.668987 157.297723v2.099562c0 94.37716 67.11232 157.297723 143.668987 157.297724 76.549299 0 140.523327-59.774903 140.523326-157.297724v-2.099562c0-95.430625-63.974027-157.297723-140.523326-157.297723z m1544.666292-1.046097c-75.761043 0-139.197287 60.599994-140.493859 154.358336l-0.0221 2.939387v2.092195c0 97.530187 62.913196 158.351188 140.515959 158.351188 76.814507 0 143.344843-62.670089 143.676354-155.470736l-0.007367-2.873085v-2.099562c0-93.33843-67.11232-157.297723-143.668987-157.297723zM2720.03802 119.759099v2.092195a56.393503 56.393503 0 0 1-56.629243 56.629243 56.393503 56.393503 0 0 1-56.629243-56.629243 56.378769 56.378769 0 0 1 54.816989-56.599775l1.812254-0.029468c30.4105-1.046098 55.575779 24.119181 56.629243 54.537048zM155.021356 142.824815c201.33696-195.045641 523.284557-189.807785 718.330197 12.582639 22.026985-29.357036 40.900944-61.867098 54.529681-95.423258 63.96666 195.045641 102.768042 358.64205 88.085841 485.529273-7.337417 106.9598-49.284459 209.727842-118.496341 291.522363-180.370806 213.926966-501.257572 241.191807-715.177171 60.821001l-4.118089-3.653975-0.714587-0.493582a41.423993 41.423993 0 0 1-6.748067-5.989277l-0.56725-0.655653-6.733333-5.98191c-6.29132-5.39256-12.582639-10.792486-18.218306-16.840699l-2.755214-3.086724c-195.053007-201.33696-188.754321-523.27719 12.582639-718.330198z m75.510568 682.674476c-18.881326-14.682201-46.146166-12.582639-60.828367 6.291319-12.796279 16.457621-12.847847 39.287596-0.139971 54.60335l0.581984 0.670386 8.029904 7.138512 0.788257 0.537782c18.166738 11.963821 42.56586 9.628518 56.702912-6.99854l1.149234-1.421809c14.682201-18.873959 11.536542-46.138799-6.29132-60.821zM922.628645 112.421682c-52.430119 110.112826-182.463001 193.999543-294.675389 220.218285-43.221513 10.269437-84.181392 12.855214-124.154109 14.881108l-11.963821 0.604084c-53.711957 2.688913-105.862134 5.657767-159.596191 26.46185-222.317848 84.940181-218.118724 349.205071-96.476723 408.972607l7.337418 4.199124s80.49795-16.008241 163.589042-37.607947l7.440554-1.952224 3.727644-0.987163 7.440553-1.989059c34.712761-9.355944 68.850905-19.544345 96.749298-29.821149 144.715084-53.483583 304.105002-185.616028 356.542487-338.714627-27.26484 159.389918-164.642507 313.541982-302.012807 383.807329-73.40364 37.747917-130.032883 46.138799-250.628785 88.08584a377.177132 377.177132 0 0 0-26.218743 10.483077l2.077461-0.279941 4.132823-0.54515 4.110721-0.515682c26.609188-3.300364 50.499995-4.950547 50.499995-4.950546 170.933827-8.390882 439.390474 48.238361 564.178135-118.496341 127.93332-169.880362 56.629243-444.628329-2.099563-621.853475z" fill="#6DB33F" p-id="14115"></path><path d="M230.524557 825.499291c17.827861 14.682201 20.973521 41.947042 6.29132 60.821-14.682201 18.881326-41.947042 20.973521-60.821 6.29132-18.873959-14.674834-20.973521-41.939675-6.29132-60.821001 14.682201-18.873959 41.947042-20.973521 60.821-6.291319z m692.118822-713.084976c58.714071 177.225146 130.025516 451.973113 2.092196 621.853475-124.795028 166.734702-393.244308 110.105459-564.178135 118.496341 0 0-30.4105 2.099562-60.821 6.29132 0 0 11.536542-5.237855 26.218742-10.483077 120.595903-41.947042 177.225146-50.337923 250.621419-88.085841 137.377667-70.265347 274.755333-224.41741 302.020174-383.814696-52.437486 153.105966-211.827404 285.245777-356.542488 338.721994-25.901967 9.540116-57.196493 19.006563-89.31611 27.802623l-7.42582 2.018527C336.069915 769.267859 243.107197 787.751373 243.107197 787.751373l-7.337418-4.199124C114.127778 723.784713 109.928654 459.519823 332.246502 374.579642c97.52282-37.755284 189.807785-16.781763 295.721487-41.947042 112.205022-26.218743 242.237904-110.105459 294.67539-220.218285z" fill="#FFFFFF" p-id="14116"></path></svg>