<?xml version="1.0" standalone="no"?><!DOCTYPE svg PUBLIC "-//W3C//DTD SVG 1.1//EN" "http://www.w3.org/Graphics/SVG/1.1/DTD/svg11.dtd"><svg t="1761138046779" class="icon" viewBox="0 0 1140 1024" version="1.1" xmlns="http://www.w3.org/2000/svg" p-id="11461" xmlns:xlink="http://www.w3.org/1999/xlink" width="222.65625" height="200"><path d="M1039.364 461.36L854.25 140.856c-16.071-27.838-55.54-50.731-87.681-50.731H396.34c-32.05 0-71.61 22.893-87.681 50.64L123.546 461.269c-16.117 27.838-16.117 73.258 0 101.28L308.66 883.051c16.07 27.838 55.539 50.64 87.68 50.64H766.57c32.05 0 71.564-22.893 87.68-50.64l185.115-320.504c16.116-27.792 16.116-73.304 0-101.188zM541.438 267.41a38.186 38.186 0 1 1 76.325 0V495.47a38.186 38.186 0 1 1-76.325 0z m38.185 486.616a258.738 258.738 0 0 1-154.345-466.242 33.928 33.928 0 1 1 40.52 54.44 190.883 190.883 0 1 0 304.663 153.247 191.799 191.799 0 0 0-77.517-153.521 33.928 33.928 0 0 1 40.11-54.944 258.784 258.784 0 0 1-153.43 467.02z" fill="#68BD45" p-id="11462"></path></svg>